<svg width="236" height="40" viewBox="0 0 447 75" fill="none" xmlns="http://www.w3.org/2000/svg">
    <path d="M106.873 49.0003H112.813L105.586 25.9003H98.425L91 49.0003H96.973L98.392 44.0173H105.454L106.873 49.0003ZM102.055 31.1473L104.695 40.2553H99.217L102.055 31.1473Z" fill="#fff" />
    <path d="M121.068 25.9003C121.068 37.2853 120.573 44.5783 117.306 44.5783C116.778 44.5783 116.118 44.5783 115.986 44.5453L116.646 49.0003C117.24 49.1323 118.428 49.3303 119.121 49.3303C125.028 49.3303 126.249 41.2123 126.513 30.5203H132.189V49.0003H137.865V25.9003H121.068Z" fill="#fff" />
    <path d="M153.858 49.0003H159.072L164.352 32.5003H164.451L164.88 49.0003H170.688L168.774 25.9003H161.943L156.498 43.2583H156.399L150.987 25.9003H144.156L142.242 49.0003H148.05L148.446 32.5003H148.578L153.858 49.0003Z" fill="#fff" />
    <path d="M190.755 49.0003H196.695L189.468 25.9003H182.307L174.882 49.0003H180.855L182.274 44.0173H189.336L190.755 49.0003ZM185.937 31.1473L188.577 40.2553H183.099L185.937 31.1473Z" fill="#fff" />
    <path d="M200.337 48.1423C201.063 48.4723 204.066 49.3303 207.135 49.3303C213.537 49.3303 217.497 48.2413 217.497 42.5323C217.497 38.4403 215.715 37.0873 212.844 36.2623C214.923 35.6353 216.21 34.2493 216.21 31.3123C216.21 26.7913 213.339 25.5703 207.465 25.5703C204.396 25.5703 201.855 26.2303 200.667 26.6923L201.459 31.1143C202.944 30.5863 205.122 30.1243 207.201 30.1243C209.676 30.1243 210.666 30.6853 210.666 32.4673C210.666 34.2493 209.511 35.2063 207.201 35.2063H203.703V39.1003H206.178C209.28 39.1003 211.755 39.1993 211.755 42.1363C211.755 44.4793 210.072 44.7763 207.135 44.7763C204.693 44.7763 202.449 44.1493 201.03 43.6543L200.337 48.1423Z" fill="#fff" />
    <path d="M232.729 39.8593C232.729 42.7633 231.673 44.7763 228.34 44.7763C226.459 44.7763 223.621 44.3143 222.004 43.8193L221.047 48.2083C221.839 48.5383 225.304 49.3303 228.34 49.3303C233.983 49.3303 238.471 46.4923 238.471 39.8263V35.0743C238.471 28.1113 234.61 25.5703 228.67 25.5703C225.403 25.5703 221.674 26.4283 221.047 26.6923L222.004 31.0813C223.522 30.4873 226.921 30.0253 228.472 30.0253C231.145 30.0253 232.729 31.1143 232.729 34.4473V34.9423H224.281V39.1663H232.729V39.8593Z" fill="#fff" />
    <path d="M243.218 25.9003V49.0003H248.894V42.3673H251.6C258.299 42.3673 261.071 40.1233 261.071 34.0183C261.071 27.9463 258.299 25.9003 251.6 25.9003H243.218ZM248.894 30.2893H251.6C254.009 30.2893 255.329 31.0153 255.329 33.9853C255.329 37.3843 253.679 38.0113 251.6 38.0113H248.894V30.2893Z" fill="#fff" />
    <path d="M270.823 49.0003V30.8833H279.997V25.9003H265.147V49.0003H270.823Z" fill="#fff" />
    <path d="M283.5 25.9003V49.0003H288.12L298.218 34.6123V49.0003H303.894V25.9003H299.274L289.176 40.2883V25.9003H283.5Z" fill="#fff" />
    <path d="M319.206 39.8593C319.206 42.7633 318.15 44.7763 314.817 44.7763C312.936 44.7763 310.098 44.3143 308.481 43.8193L307.524 48.2083C308.316 48.5383 311.781 49.3303 314.817 49.3303C320.46 49.3303 324.948 46.4923 324.948 39.8263V35.0743C324.948 28.1113 321.087 25.5703 315.147 25.5703C311.88 25.5703 308.151 26.4283 307.524 26.6923L308.481 31.0813C309.999 30.4873 313.398 30.0253 314.949 30.0253C317.622 30.0253 319.206 31.1143 319.206 34.4473V34.9423H310.758V39.1663H319.206V39.8593Z" fill="#fff" />
    <path d="M343.62 25.9003V34.6123H334.71V25.9003H329.034V49.0003H334.71V38.9683H343.62V49.0003H349.296V25.9003H343.62Z" fill="#fff" />
    <path d="M359.992 30.2563H369.958V25.9003H354.316V49.0003H364.876C370.222 49.0003 371.773 46.2283 371.773 41.8723C371.773 37.1863 369.957 34.7773 364.941 34.7773H359.992V30.2563ZM363.292 38.6713C365.139 38.6713 366.262 39.5953 366.262 41.8723C366.262 44.1493 365.139 45.0733 363.292 45.0733H359.992V38.6713H363.292Z" fill="#fff" />
    <path d="M391.1 49.0003H397.04L389.813 25.9003H382.652L375.227 49.0003H381.2L382.619 44.0173H389.681L391.1 49.0003ZM386.282 31.1473L388.922 40.2553H383.444L386.282 31.1473Z" fill="#fff" />
    <path d="M415.854 25.9003V34.6123H406.944V25.9003H401.268V49.0003H406.944V38.9683H415.854V49.0003H421.53V25.9003H415.854Z" fill="#fff" />
    <path d="M432.225 25.9003H426.549V49.0003H432.225V37.7803H432.753L439.815 49.0003H446.184L437.769 36.5263L445.986 25.9003H439.419L432.687 35.8333H432.225V25.9003Z" fill="#fff" />
    <path fill-rule="evenodd" clip-rule="evenodd" d="M43.4543 40.5911L40.5986 43.4478L42.4975 48.0348L48.0398 42.4902L43.4543 40.5911ZM39.5411 43.8844H35.4924L33.5949 48.4714H41.4226L39.5411 43.8844ZM43.9079 35.4844V39.5156L48.4773 41.4147V33.5853L43.9079 35.4844ZM34.4175 43.4478L31.5618 40.5911L26.9937 42.4902L32.536 48.0348L34.4175 43.4478ZM42.4975 26.9652L40.5986 31.5522L43.4543 34.4089L48.0398 32.5098L42.4975 26.9652ZM35.4924 31.0982H39.5411L41.4226 26.5286H33.5949L35.4924 31.0982ZM31.1256 39.5156V35.4844L26.5562 33.5853V41.4147L31.1256 39.5156ZM31.5618 34.4089L34.4175 31.5522L32.536 26.9652L26.9937 32.5098L31.5618 34.4089ZM34.5852 23.5215H62.2674C63.2255 23.5215 64.1824 23.8911 64.9218 24.6308C65.6599 25.3701 66.0303 26.3277 66.0303 27.2853C66.0303 28.2429 65.6599 29.2165 64.9218 29.9558L71.2707 36.3067C73.7573 33.821 75 30.5438 75 27.2853C75 24.0256 73.7573 20.7662 71.2707 18.2796C68.7853 15.793 65.5257 14.5497 62.2674 14.5497H43.555L34.5852 23.5215ZM45.3196 25.5375L64.8883 45.1272C65.5767 45.7996 65.9967 46.7411 65.9967 47.7817C65.9967 48.8237 65.5767 49.7652 64.8883 50.4536C64.2159 51.1259 63.2752 51.5451 62.2338 51.5451V60.5344C65.7444 60.5344 68.9356 59.1067 71.2371 56.8045C73.5547 54.4862 74.9665 51.3107 74.9665 47.7817C74.9665 44.2714 73.5386 41.0786 71.2371 38.7603L58.0174 25.5375H45.3196ZM51.4833 34.5603V62.2473C51.4833 63.2062 51.1143 64.1799 50.3748 64.9192C49.6354 65.6424 48.6786 66.0121 47.7204 66.0121C46.7636 66.0121 45.7893 65.6424 45.0674 64.9192L38.7011 71.2701C41.2038 73.7571 44.4621 75 47.7204 75C50.9801 75 54.2384 73.7571 56.7412 71.2701C59.2265 68.783 60.4705 65.5071 60.4705 62.2473L60.4531 43.5482L51.4833 34.5603ZM49.4677 45.296L29.8991 64.8857C29.2107 65.558 28.2699 65.9772 27.2286 65.9772C26.1872 65.9772 25.2626 65.558 24.5741 64.8857C23.8857 64.1973 23.4657 63.2558 23.4657 62.2138H14.4798C14.4798 65.7429 15.9064 68.9183 18.2253 71.2366C20.5268 73.5388 23.718 74.9665 27.2286 74.9665C30.7553 74.9665 33.9304 73.5388 36.2479 71.2366L49.4677 57.9978V45.296ZM40.4483 51.4621H12.7662C11.808 51.4621 10.8337 51.0924 10.1117 50.3692C9.37232 49.6299 9.00327 48.6723 9.00327 47.6987C9.00327 46.7411 9.37232 45.7835 10.1117 45.0442L3.76288 38.6933C1.26011 41.179 0.0174463 44.4388 0.0174463 47.6987C0.0174463 50.9571 1.26011 54.2344 3.76288 56.7201C6.24821 59.2071 9.50786 60.45 12.7662 60.45H31.4786L40.4483 51.4621ZM29.6642 49.3286L10.0956 29.7549C9.40586 29.0665 8.98718 28.125 8.98718 27.083C8.98718 26.0411 9.40586 25.1009 10.0956 24.4286C10.7666 23.7399 11.7073 23.3199 12.7487 23.3199V14.3482C9.23812 14.3482 6.04692 15.7762 3.74544 18.0779C1.42786 20.3796 0 23.572 0 27.083C0 30.6121 1.42786 33.7875 3.74544 36.1058L16.9652 49.3286H29.6642ZM23.5502 40.4237V12.7351C23.5502 11.7775 23.9193 10.8198 24.6587 10.0807C25.3807 9.34139 26.3549 8.98861 27.3118 8.97174C28.2699 8.97174 29.2268 9.34139 29.9662 10.0807L36.3325 3.72977C33.8297 1.24325 30.5714 0 27.3118 0C24.0535 0 20.7952 1.24325 18.2924 3.72977C15.8057 6.21642 14.5631 9.47585 14.5631 12.752V31.4518L23.5502 40.4237ZM25.5659 29.6879L45.1345 10.1142C45.8229 9.42536 46.7636 9.02224 47.805 9.02224C48.8464 9.02224 49.7696 9.44224 50.4594 10.1142C51.1478 10.8031 51.5679 11.7272 51.5679 12.7856H60.5537C60.5537 9.25741 59.1097 6.06522 56.8083 3.76339C54.5068 1.46169 51.3156 0.033617 47.805 0.033617C44.2783 0.033617 41.0857 1.46169 38.7843 3.76339L25.5659 16.9859V29.6879ZM39.7585 42.9094L42.9175 39.7339V35.2487L39.7585 32.0906H35.2737L32.0999 35.2487V39.7339L35.2737 42.9094H39.7585ZM32.5696 49.4451L25.5659 42.4567V32.5433L32.5696 25.5375H42.464L49.4677 32.5433V42.4567L42.464 49.4451H32.5696Z" fill="#fff" />
</svg>