<svg width="84" height="84" viewBox="0 0 84 84" fill="none" xmlns="http://www.w3.org/2000/svg">
    <rect width="84" height="84" rx="42" fill="#00B1E9" />
    <path fill-rule="evenodd" clip-rule="evenodd" d="M43.6666 53.6667V51.8819C46.9724 51.409 49.8312 49.5503 51.6355 46.9131C56.1589 46.2898 58.6666 42.3714 58.6666 37V32C58.6666 30.1591 57.1742 28.6667 55.3333 28.6667H53.2206C52.6443 27.6703 51.5671 27 50.3333 27H33.6666C32.4328 27 31.3555 27.6703 30.7792 28.6667H28.6666C26.8256 28.6667 25.3333 30.1591 25.3333 32V37C25.3333 42.3714 27.8409 46.2898 32.3643 46.9131C34.1687 49.5503 37.0274 51.409 40.3333 51.8819V53.6667H38.6666C36.8256 53.6667 35.3333 55.159 35.3333 57H48.6666C48.6666 55.159 47.1742 53.6667 45.3333 53.6667H43.6666ZM28.6666 32H30.3333V40.3333C30.3333 41.0963 30.4065 41.8421 30.5463 42.5641C29.317 41.4577 28.6666 39.5521 28.6666 37V32ZM53.6666 32V40.3333C53.6666 41.0963 53.5934 41.8421 53.4535 42.5642C54.6828 41.4577 55.3333 39.5521 55.3333 37V32H53.6666ZM33.6666 40.3333V30.3333H50.3333V40.3333C50.3333 44.9357 46.6023 48.6667 41.9999 48.6667C37.3975 48.6667 33.6666 44.9357 33.6666 40.3333Z" fill="#27303E" />
</svg>