<svg width="100" height="32" viewBox="0 0 100 32" fill="none" xmlns="http://www.w3.org/2000/svg">
    <path fill-rule="evenodd" clip-rule="evenodd" d="M68.8042 3.2002C66.2193 3.2002 64.0168 3.62613 62.1543 4.27237L62.5296 8.27466C64.2222 7.63577 66.0139 7.31264 67.7419 7.31264C73.804 7.31264 75.3904 11.1387 75.7728 13.5694H65.6315V17.6819H75.7728C75.702 21.5373 73.2233 24.6877 68.2589 24.6877C67.0054 24.6877 64.8666 24.5335 62.395 23.4614L64.2647 28.3669C65.5607 28.6533 66.8212 28.8002 68.0818 28.8002C76.2898 28.8002 80.9426 23.5789 80.9426 15.6036C80.9426 7.84873 76.0419 3.2002 68.8042 3.2002ZM87.4792 17.0724H90.5102C93.2438 17.0724 94.8231 18.2914 94.8231 20.825C94.8231 23.3659 93.2438 24.5776 90.5102 24.5776H87.4792V17.0724ZM82.5856 3.4866V28.5138H91.4096C98.3074 28.5138 100 23.8653 100 21.2215C100 17.9977 98.5128 13.1362 91.4096 13.1362H87.4792V7.91482H98.0312V3.4866H82.5856ZM46.5599 18.7541L49.9026 8.52435H49.9734L53.5214 18.7541H46.5599ZM47.3531 3.4866L37.7358 28.5138H42.9765L45.009 22.9032H54.9732L57.0057 28.5138H62.5225L52.9407 3.4866H47.3531Z" fill="#00b1e9" />
    <path fill-rule="evenodd" clip-rule="evenodd" d="M18.22 17.319L17.0227 18.5376L17.8185 20.4946L20.1427 18.129L18.22 17.319ZM16.579 18.724H14.8816L14.0858 20.681H17.3678L16.579 18.724ZM18.4101 15.1398V16.8602L20.3258 17.6702V14.3297L18.4101 15.1398ZM14.4309 18.5376L13.2336 17.319L11.3179 18.129L13.6421 20.4946L14.4309 18.5376ZM17.8185 11.5054L17.0227 13.4624L18.22 14.681L20.1427 13.871L17.8185 11.5054ZM14.8816 13.2688H16.579L17.3678 11.319H14.0858L14.8816 13.2688ZM13.0505 16.8602V15.1398L11.1348 14.3297V17.6702L13.0505 16.8602ZM13.2336 14.681L14.4309 13.4624L13.6421 11.5054L11.3179 13.871L13.2336 14.681ZM14.5013 10.0358H26.108C26.5095 10.0358 26.9109 10.1935 27.2208 10.509C27.5307 10.8244 27.6856 11.233 27.6856 11.6416C27.6856 12.0502 27.5307 12.466 27.2208 12.7814L29.883 15.491C30.9254 14.4301 31.4465 13.0323 31.4465 11.6416C31.4465 10.2509 30.9254 8.86022 29.883 7.79928C28.8407 6.73835 27.4743 6.20789 26.108 6.20789H18.2622L14.5013 10.0358ZM19.0017 10.8961L27.2067 19.2545C27.4955 19.5412 27.6715 19.9427 27.6715 20.3871C27.6715 20.8315 27.4955 21.233 27.2067 21.5269C26.925 21.8136 26.5306 21.9928 26.0939 21.9928V25.828C27.5659 25.828 28.9041 25.2186 29.8689 24.2366C30.8409 23.2473 31.4325 21.8925 31.4325 20.3871C31.4325 18.8889 30.8338 17.5269 29.8689 16.5376L24.3262 10.8961H19.0017ZM21.5865 14.7455V26.5591C21.5865 26.9677 21.4315 27.3835 21.1217 27.6989C20.8118 28.0072 20.4103 28.1649 20.0089 28.1649C19.6074 28.1649 19.1989 28.0072 18.8961 27.6989L16.2268 30.4086C17.2762 31.4695 18.6426 32 20.0089 32C21.3752 32 22.7415 31.4695 23.7909 30.4086C24.8333 29.3477 25.3544 27.9498 25.3544 26.5591L25.3474 18.5806L21.5865 14.7455ZM20.7413 19.3262L12.5364 27.6846C12.2476 27.9713 11.8532 28.1505 11.4165 28.1505C10.9799 28.1505 10.5925 27.9713 10.3038 27.6846C10.015 27.3907 9.83893 26.9892 9.83893 26.5448H6.07098C6.07098 28.0502 6.66962 29.405 7.64154 30.3943C8.60642 31.3763 9.94457 31.9857 11.4165 31.9857C12.8955 31.9857 14.2267 31.3763 15.1986 30.3943L20.7413 24.7455V19.3262ZM16.9593 21.957H5.3526C4.95116 21.957 4.54267 21.7993 4.23982 21.491C3.92994 21.1756 3.77499 20.767 3.77499 20.3513C3.77499 19.9427 3.92994 19.534 4.23982 19.2186L1.57761 16.509C0.528217 17.5699 0.0070429 18.9606 0.0070429 20.3513C0.0070429 21.7419 0.528217 23.1398 1.57761 24.2007C2.61996 25.2616 3.98628 25.7921 5.3526 25.7921H13.1984L16.9593 21.957ZM12.4378 21.0466L4.23278 12.6953C3.94402 12.4014 3.76795 12 3.76795 11.5556C3.76795 11.1111 3.94402 10.7097 4.23278 10.4229C4.5145 10.129 4.9089 9.94982 5.34556 9.94982V6.12186C3.87359 6.12186 2.53544 6.73118 1.57057 7.71326C0.598646 8.69534 0 10.0573 0 11.5556C0 13.0609 0.598646 14.4158 1.57057 15.405L7.11333 21.0466H12.4378ZM9.87414 17.2473V5.43369C9.87414 5.02509 10.0291 4.61649 10.339 4.30108C10.6418 3.98566 11.0503 3.83513 11.4518 3.82796C11.8532 3.82796 12.2546 3.98566 12.5645 4.30108L15.2338 1.5914C14.1844 0.530466 12.8181 0 11.4518 0C10.0854 0 8.71911 0.530466 7.66972 1.5914C6.62737 2.65233 6.10619 4.04301 6.10619 5.44086V13.4194L9.87414 17.2473ZM10.7193 12.6667L18.9243 4.31541C19.213 4.02151 19.6074 3.84946 20.0441 3.84946C20.4807 3.84946 20.8681 4.02867 21.1569 4.31541C21.4456 4.60932 21.6217 5.00358 21.6217 5.4552H25.3896C25.3896 3.94982 24.784 2.58781 23.8191 1.60573C22.8542 0.623656 21.5161 0.0143369 20.0441 0.0143369C18.5651 0.0143369 17.2269 0.623656 16.2621 1.60573L10.7193 7.24731V12.6667ZM16.6705 18.3082L17.9946 16.9534V15.0394L16.6705 13.6918H14.7901L13.459 15.0394V16.9534L14.7901 18.3082H16.6705ZM13.6562 21.0968L10.7193 18.1147V13.8853L13.6562 10.8961H17.8044L20.7413 13.8853V18.1147L17.8044 21.0968H13.6562Z" fill="#00b1e9" />
</svg>