<svg width="84" height="84" viewBox="0 0 84 84" fill="none" xmlns="http://www.w3.org/2000/svg">
    <rect width="84" height="84" rx="42" fill="#00B1E9" />
    <path fill-rule="evenodd" clip-rule="evenodd" d="M57 50.6641V33.3436L42 24.6833L27 33.3436V50.6641L42 59.3244L57 50.6641ZM30.3333 35.2681L42 28.5324L53.6667 35.2681V48.7396L42 55.4754L30.3333 48.7396V35.2681ZM42 50.3333C37.3976 50.3333 33.6667 46.6024 33.6667 42C33.6667 37.3976 37.3976 33.6667 42 33.6667C46.6024 33.6667 50.3333 37.3976 50.3333 42C50.3333 46.6024 46.6024 50.3333 42 50.3333ZM47 42C47 44.7614 44.7614 47 42 47C39.2386 47 37 44.7614 37 42C37 39.2386 39.2386 37 42 37C44.7614 37 47 39.2386 47 42Z" fill="#27303E" />
</svg>