<svg width="84" height="84" viewBox="0 0 84 84" fill="none" xmlns="http://www.w3.org/2000/svg">
    <rect width="84" height="84" rx="42" fill="#00B1E9" />
    <path fill-rule="evenodd" clip-rule="evenodd" d="M33.6667 35.3333V41.1666L27 46.1666V55.3333H33.6667C33.6667 57.1742 35.1591 58.6666 37 58.6666H40.3333V60.3333H43.6667V58.6666H47C48.841 58.6666 50.3333 57.1742 50.3333 55.3333H57V46.1666L50.3333 41.1666V35.3333C50.3333 30.0732 47.1441 23.6666 42 23.6666C36.8559 23.6666 33.6667 30.0732 33.6667 35.3333ZM43.6667 55.3333H47V38.6666V35.3333C47 31.6787 44.6709 27 42 27C39.3291 27 37 31.6787 37 35.3333V38.6666V55.3333H40.3333V45.3333H43.6667V55.3333ZM30.3333 47.8333L33.6667 45.3333V52H30.3333V47.8333ZM50.3333 52V45.3333L53.6667 47.8333V52H50.3333ZM42 40.3333C40.159 40.3333 38.6667 38.8409 38.6667 37C38.6667 35.159 40.159 33.6666 42 33.6666C43.841 33.6666 45.3333 35.159 45.3333 37C45.3333 38.8409 43.841 40.3333 42 40.3333Z" fill="#27303E" />
</svg>