<svg width="72" height="72" viewBox="0 0 72 72" fill="none" xmlns="http://www.w3.org/2000/svg">
<path d="M71.8788 21.1131C71.8782 19.9056 71.5877 18.8386 71.0002 17.9228C70.423 17.0223 69.5587 16.2676 68.3994 15.6708C58.8299 10.7661 49.2511 5.87634 39.6847 0.966594C37.1056 -0.356906 34.605 -0.308656 32.0451 1.03384C28.2361 3.03059 9.16594 12.7423 3.48328 15.6681C1.143 16.8723 0.00421875 18.7153 0.00365625 21.1108C0 30.9746 0.00365625 40.8381 0 50.7021C0 51.8831 0.278719 52.9293 0.840375 53.8313C1.41778 54.7591 2.29416 55.5346 3.48019 56.1448C9.16313 59.0706 28.2358 68.7816 32.0439 70.7788C34.605 72.1221 37.1056 72.1701 39.6855 70.8461C49.2522 65.9361 58.8316 61.0466 68.4025 56.1418C69.5886 55.5318 70.4649 54.7558 71.0423 53.8288C71.6032 52.9268 71.8824 51.8806 71.8824 50.6993C71.8824 50.6993 71.8824 30.9771 71.8788 21.1131Z" fill="#A179DC"/>
<path d="M36.0516 35.8105L0.84082 53.8315C1.41823 54.7593 2.2946 55.5348 3.48063 56.145C9.16357 59.0708 28.2363 68.7818 32.0444 70.779C34.6054 72.1223 37.106 72.1703 39.6859 70.8463C49.2527 65.9363 58.832 61.0468 68.403 56.142C69.589 55.532 70.4654 54.756 71.0428 53.829L36.0516 35.8105Z" fill="#280068"/>
<path d="M71.8784 21.1131C71.8778 19.9056 71.5873 18.8386 70.9997 17.9229L36.0508 35.8104L71.0419 53.8288C71.6027 52.9268 71.8815 51.8806 71.882 50.6994C71.882 50.6994 71.882 30.9771 71.8784 21.1131Z" fill="#390091"/>
<path d="M56.7819 29.0737V32.4422H60.5713V29.0737H62.4661V32.4422H66.2556V34.1264H62.4661V37.4948H66.2556V39.179H62.4661V42.5474H60.5713V39.179H56.7819V42.5474H54.8871V39.179H51.0977V37.4948H54.8871V34.1264H51.0977V32.4422H54.8871V29.0737H56.7819ZM60.5713 34.1264H56.7819V37.4948H60.5713V34.1264Z" fill="white"/>
<path d="M36.1281 12.1562C46.0123 12.1562 54.642 16.9278 59.2642 24.0203L59.2191 23.952L47.5898 29.9041C45.2986 26.4557 41.0982 24.1285 36.2799 24.0806L36.1281 24.0799C28.7803 24.0799 22.8233 29.3747 22.8233 35.9061C22.8233 38.042 23.4639 40.0442 24.578 41.7735C26.8713 45.3323 31.1825 47.7326 36.1281 47.7326C41.1042 47.7326 45.44 45.3018 47.7217 41.7049L47.6662 41.7913L59.278 47.7708C54.7065 54.8032 46.195 59.56 36.4257 59.6548L36.1281 59.6562C26.2127 59.6562 17.5585 54.8553 12.9479 47.7254C10.697 44.2446 9.40918 40.2093 9.40918 35.9061C9.40918 22.7896 21.3714 12.1562 36.1281 12.1562Z" fill="white"/>
</svg>
