<svg width="64" height="64" viewBox="0 0 64 64" fill="none" xmlns="http://www.w3.org/2000/svg">
<path d="M63.8923 18.7672C63.8918 17.6939 63.6335 16.7454 63.1113 15.9314C62.5983 15.131 61.83 14.4601 60.7995 13.9296C52.2933 9.56986 43.7787 5.22342 35.2752 0.859195C32.9827 -0.31725 30.76 -0.274361 28.4845 0.918972C25.0988 2.69386 8.1475 11.3265 3.09625 13.9272C1.016 14.9976 0.00375 16.6359 0.00325 18.7652C0 27.533 0.00325 36.3005 0 45.0685C0 46.1183 0.24775 47.0483 0.747 47.8501C1.26025 48.6748 2.03925 49.3641 3.0935 49.9065C8.145 52.5072 25.0985 61.1392 28.4835 62.9145C30.76 64.1085 32.9827 64.1512 35.276 62.9743C43.7798 58.6099 52.2948 54.2636 60.8022 49.9039C61.8565 49.3616 62.6355 48.6719 63.1488 47.8479C63.6473 47.0461 63.8955 46.1161 63.8955 45.0661C63.8955 45.0661 63.8955 27.5352 63.8923 18.7672Z" fill="#A179DC"/>
<path d="M32.0455 31.8315L0.747009 47.8502C1.26026 48.6749 2.03926 49.3642 3.09351 49.9067C8.14501 52.5073 25.0985 61.1393 28.4835 62.9147C30.76 64.1087 32.9828 64.1513 35.276 62.9744C43.7798 58.61 52.2948 54.2638 60.8023 49.904C61.8565 49.3618 62.6355 48.672 63.1488 47.848L32.0455 31.8315Z" fill="#280068"/>
<path d="M63.8926 18.7674C63.8921 17.6941 63.6339 16.7456 63.1116 15.9316L32.0459 31.8316L63.1491 47.8481C63.6476 47.0463 63.8954 46.1163 63.8959 45.0663C63.8959 45.0663 63.8959 27.5354 63.8926 18.7674Z" fill="#390091"/>
<path d="M50.4735 25.8433V28.8374H53.842V25.8433H55.5262V28.8374H58.8946V30.3345H55.5262V33.3286H58.8946V34.8257H55.5262V37.8199H53.842V34.8257H50.4735V37.8199H48.7893V34.8257H45.4209V33.3286H48.7893V30.3345H45.4209V28.8374H48.7893V25.8433H50.4735ZM53.842 30.3345H50.4735V33.3286H53.842V30.3345Z" fill="white"/>
<path d="M32.1142 10.8057C40.9001 10.8057 48.571 15.0471 52.6796 21.3515L52.6395 21.2908L42.3024 26.5815C40.2657 23.5163 36.532 21.4477 32.2491 21.4051L32.1142 21.4044C25.5828 21.4044 20.2877 26.111 20.2877 31.9167C20.2877 33.8152 20.8571 35.5949 21.8474 37.1321C23.8859 40.2955 27.7181 42.4291 32.1142 42.4291C36.5374 42.4291 40.3914 40.2684 42.4196 37.0711L42.3703 37.1479L52.6919 42.463C48.6283 48.714 41.0626 52.9423 32.3787 53.0266L32.1142 53.0279C23.3005 53.0279 15.6079 48.7604 11.5096 42.4226C9.50881 39.3287 8.36404 35.7417 8.36404 31.9167C8.36404 20.2575 18.9971 10.8057 32.1142 10.8057Z" fill="white"/>
</svg>
