<svg width="72" height="72" viewBox="0 0 72 72" fill="none" xmlns="http://www.w3.org/2000/svg">
<path d="M0.659424 36.0002C0.659424 40.6412 1.57353 45.2367 3.34956 49.5244C5.12559 53.8121 7.72875 57.7081 11.0104 60.9897C14.2921 64.2714 18.188 66.8746 22.4757 68.6506C26.7634 70.4266 31.359 71.3407 36 71.3407C40.6409 71.3407 45.2365 70.4266 49.5242 68.6506C53.8119 66.8746 57.7078 64.2714 60.9895 60.9897C64.2711 57.7081 66.8743 53.8121 68.6503 49.5244C70.4264 45.2367 71.3405 40.6412 71.3405 36.0002C71.3405 26.6273 67.6171 17.6383 60.9895 11.0107C54.3618 4.38303 45.3728 0.659668 36 0.659668C26.6271 0.659668 17.6381 4.38303 11.0104 11.0107C4.38279 17.6383 0.659424 26.6273 0.659424 36.0002Z" fill="#0B5975"/>
<path d="M27.5731 40.8627C27.5731 42.2113 27.4746 43.1761 27.2799 43.7562C27.073 44.3613 26.7408 44.916 26.305 45.384C25.8492 45.8882 25.2066 46.2479 24.3864 46.4637C23.5624 46.6802 22.5781 46.792 21.4374 46.792C20.2029 46.792 19.185 46.6779 18.386 46.4496C17.5838 46.2205 16.9514 45.8312 16.4823 45.2815C16.0053 44.7169 15.655 44.0565 15.455 43.345C15.2392 42.6046 15.1313 41.4194 15.1313 39.7979V38.9058H20.2709V41.0988C20.2709 41.9002 20.3233 42.4475 20.425 42.7461C20.5297 43.0424 20.7955 43.1902 21.2302 43.1902C21.9612 43.1902 22.3279 42.5522 22.3279 41.2708C22.3279 40.4476 22.2818 39.8307 22.1887 39.4203C22.0965 39.0114 21.8252 38.5759 21.3678 38.1193C19.2397 36.5854 17.7801 35.4439 16.9818 34.691C15.634 33.4331 14.9585 31.5825 14.9585 29.1386C14.9585 28.2684 15.0109 27.5163 15.1125 26.8744C15.2142 26.2357 15.4268 25.6313 15.7481 25.0567C16.1786 24.3258 16.8611 23.7773 17.6675 23.5142C18.4876 23.2397 19.5861 23.1045 20.9558 23.1045C22.2826 23.1045 23.3286 23.185 24.0933 23.3453C24.8579 23.5056 25.4935 23.8574 25.997 24.4062C26.5005 24.9558 26.8296 25.6532 26.9899 26.4976C27.0829 27.0011 27.1259 27.926 27.1259 29.2746V29.5834H22.0238V28.5217C22.0238 27.9049 22.0113 27.5257 21.9902 27.3896C21.8971 26.865 21.6141 26.6 21.1325 26.6C20.4695 26.6 20.1388 27.2169 20.1388 28.4506C20.1388 29.4106 20.2936 30.0979 20.6017 30.5083C20.9105 30.918 21.8627 31.6404 23.4647 32.6677C25.223 33.7873 26.3769 34.9748 26.9258 36.2336C27.3566 37.2163 27.5731 38.7581 27.5731 40.8627ZM43.9577 49.5675H39.3637C37.7876 49.5675 36.7814 49.3509 36.3467 48.9154C36.0074 48.573 35.8354 47.8295 35.8354 46.6857C35.2574 46.6875 34.6814 46.6187 34.1201 46.4809C33.5323 46.3255 32.9758 46.0697 32.4751 45.7248C31.2633 44.9493 30.4854 43.9212 30.1437 42.6406C29.9155 41.7962 29.8044 40.3115 29.8044 38.1865V30.8851C29.8044 29.8586 29.8287 29.0182 29.8873 28.3677C29.9403 27.7305 30.073 27.1025 30.2821 26.4984C30.7387 25.3108 31.5104 24.4469 32.5955 23.9105C33.6815 23.3734 35.0239 23.1053 36.6203 23.1053C38.5178 23.1053 40.0603 23.4203 41.2479 24.0497C42.4363 24.6759 43.2384 25.654 43.6481 26.9807C43.8084 27.4592 43.8975 28.1042 43.9233 28.915C43.9444 29.7265 43.9577 30.3371 43.9577 30.7515V38.4297C43.9577 40.3475 43.8764 41.6742 43.7153 42.406C43.3768 43.979 42.1986 45.0095 40.1862 45.4903C40.1862 46.061 40.2886 46.4035 40.4958 46.5176C40.6999 46.631 41.1596 46.6873 41.8648 46.6873H43.9577V49.5675ZM37.8204 40.8627V28.6241C37.8204 27.915 37.7665 27.4021 37.6515 27.0816C37.5374 26.7611 37.2841 26.6008 36.8955 26.6008C36.4624 26.6008 36.1919 26.7728 36.0895 27.116C35.9886 27.4584 35.9362 28.1425 35.9362 29.1737V41.2724C35.9362 41.8892 35.9941 42.3669 36.109 42.7141C36.2232 43.0534 36.4733 43.2254 36.8619 43.2254C37.5007 43.2246 37.8204 42.4381 37.8204 40.8627ZM58.1477 46.6865H46.4587V23.1053H52.5944V41.9909H58.1485V46.6865H58.1477Z" fill="#353535"/>
<path d="M27.5731 40.5258C27.5731 41.8744 27.4746 42.8392 27.2799 43.4193C27.073 44.0244 26.7408 44.579 26.305 45.0471C25.8492 45.5513 25.2066 45.911 24.3864 46.1267C23.5624 46.3433 22.5781 46.4551 21.4374 46.4551C20.2029 46.4551 19.185 46.341 18.386 46.1127C17.5838 45.8836 16.9514 45.4943 16.4823 44.9446C16.0053 44.38 15.655 43.7196 15.455 43.0081C15.2392 42.2677 15.1313 41.0824 15.1313 39.461V38.5689H20.2709V40.7619C20.2709 41.5633 20.3233 42.1105 20.425 42.4092C20.5297 42.7055 20.7955 42.8533 21.2302 42.8533C21.9612 42.8533 22.3279 42.2153 22.3279 40.9339C22.3279 40.1107 22.2818 39.4938 22.1887 39.0833C22.0965 38.6744 21.8252 38.239 21.3678 37.7824C19.2397 36.2485 17.7801 35.107 16.9818 34.3541C15.634 33.0962 14.9585 31.2456 14.9585 28.8017C14.9585 27.9315 15.0109 27.1794 15.1125 26.5375C15.2142 25.8988 15.4268 25.2944 15.7481 24.7198C16.1786 23.9889 16.8611 23.4404 17.6675 23.1773C18.4876 22.9028 19.5861 22.7676 20.9558 22.7676C22.2826 22.7676 23.3286 22.8481 24.0933 23.0084C24.8579 23.1687 25.4935 23.5205 25.997 24.0693C26.5005 24.6189 26.8296 25.3163 26.9899 26.1607C27.0829 26.6642 27.1259 27.5891 27.1259 28.9377V29.2465H22.0238V28.1848C22.0238 27.5679 22.0113 27.1888 21.9902 27.0527C21.8971 26.5281 21.6141 26.2631 21.1325 26.2631C20.4695 26.2631 20.1388 26.8799 20.1388 28.1136C20.1388 29.0737 20.2936 29.7609 20.6017 30.1714C20.9105 30.5811 21.8627 31.3035 23.4647 32.3308C25.223 33.4503 26.3769 34.6379 26.9258 35.8966C27.3566 36.8794 27.5731 38.4219 27.5731 40.5258ZM43.9577 49.2313H39.3637C37.7876 49.2313 36.7814 49.0148 36.3467 48.5793C36.0074 48.2369 35.8354 47.4934 35.8354 46.3496C35.2574 46.3514 34.6814 46.2826 34.1201 46.1447C33.5323 45.9893 32.9758 45.7336 32.4751 45.3887C31.2633 44.6131 30.4854 43.5851 30.1437 42.3044C29.9155 41.4601 29.8044 39.9754 29.8044 37.8504V30.549C29.8044 29.5225 29.8287 28.682 29.8873 28.0316C29.9403 27.3944 30.073 26.7664 30.2821 26.1622C30.7387 24.9747 31.5104 24.1107 32.5955 23.5744C33.6815 23.0373 35.0239 22.7691 36.6203 22.7691C38.5178 22.7691 40.0603 23.0842 41.2479 23.7136C42.4363 24.3398 43.2384 25.3179 43.6481 26.6446C43.8084 27.1231 43.8975 27.7681 43.9233 28.5788C43.9444 29.3904 43.9577 30.001 43.9577 30.4153V38.0936C43.9577 40.0114 43.8764 41.3381 43.7153 42.0699C43.3768 43.6429 42.1986 44.6733 40.1862 45.1542C40.1862 45.7249 40.2886 46.0673 40.4958 46.1815C40.6999 46.2948 41.1596 46.3511 41.8648 46.3511H43.9577V49.2313ZM37.8204 40.5258V28.2872C37.8204 27.5781 37.7665 27.0652 37.6515 26.7447C37.5374 26.4241 37.2841 26.2639 36.8955 26.2639C36.4624 26.2639 36.1919 26.4359 36.0895 26.7791C35.9886 27.1215 35.9362 27.8056 35.9362 28.8368V40.9355C35.9362 41.5523 35.9941 42.03 36.109 42.3771C36.2232 42.7164 36.4733 42.8884 36.8619 42.8884C37.5007 42.8884 37.8204 42.1019 37.8204 40.5258ZM58.1477 46.3496H46.4587V22.7684H52.5944V41.654H58.1485V46.3496H58.1477Z" fill="white"/>
</svg>
