<svg width="72" height="72" viewBox="0 0 72 72" fill="none" xmlns="http://www.w3.org/2000/svg">
<g filter="url(#filter0_d_390_2640)">
<path d="M4.58618 31.9997C4.58618 36.1251 5.39872 40.21 6.97741 44.0213C8.55611 47.8326 10.87 51.2956 13.7871 54.2127C16.7041 57.1297 20.1671 59.4436 23.9784 61.0223C27.7897 62.601 31.8747 63.4136 36 63.4136C40.1253 63.4136 44.2102 62.601 48.0215 61.0223C51.8328 59.4436 55.2959 57.1297 58.2129 54.2127C61.1299 51.2956 63.4439 47.8326 65.0225 44.0213C66.6012 40.21 67.4138 36.1251 67.4138 31.9997C67.4138 23.6683 64.1041 15.6781 58.2129 9.78683C52.3217 3.8956 44.3314 0.585938 36 0.585938C27.6685 0.585938 19.6783 3.8956 13.7871 9.78683C7.89584 15.6781 4.58618 23.6683 4.58618 31.9997Z" fill="#0B5975"/>
<path d="M28.5094 36.3227C28.5094 37.5215 28.4218 38.379 28.2488 38.8947C28.0649 39.4325 27.7696 39.9256 27.3822 40.3416C26.977 40.7898 26.4058 41.1095 25.6768 41.3013C24.9443 41.4938 24.0694 41.5932 23.0554 41.5932C21.9581 41.5932 21.0533 41.4917 20.343 41.2888C19.63 41.0852 19.0678 40.7391 18.6508 40.2505C18.2269 39.7486 17.9155 39.1616 17.7377 38.5291C17.5459 37.871 17.45 36.8175 17.45 35.3762V34.5832H22.0186V36.5326C22.0186 37.2449 22.0651 37.7313 22.1555 37.9968C22.2486 38.2602 22.4849 38.3915 22.8713 38.3915C23.521 38.3915 23.847 37.8245 23.847 36.6854C23.847 35.9537 23.806 35.4053 23.7233 35.0405C23.6413 34.677 23.4001 34.29 22.9936 33.8841C21.1019 32.5206 19.8045 31.506 19.0949 30.8368C17.8968 29.7186 17.2964 28.0736 17.2964 25.9012C17.2964 25.1277 17.3429 24.4592 17.4333 23.8886C17.5236 23.3209 17.7127 22.7837 17.9983 22.2729C18.3809 21.6232 18.9876 21.1356 19.7044 20.9018C20.4334 20.6578 21.4098 20.5376 22.6273 20.5376C23.8067 20.5376 24.7365 20.6092 25.4162 20.7516C26.0958 20.8941 26.6608 21.2068 27.1084 21.6947C27.5559 22.1832 27.8485 22.8031 27.991 23.5537C28.0737 24.0012 28.1119 24.8234 28.1119 26.0221V26.2966H23.5766V25.3529C23.5766 24.8046 23.5655 24.4675 23.5468 24.3466C23.4641 23.8803 23.2125 23.6447 22.7844 23.6447C22.1951 23.6447 21.9011 24.193 21.9011 25.2897C21.9011 26.1431 22.0387 26.7539 22.3125 27.1188C22.587 27.4829 23.4335 28.1251 24.8574 29.0382C26.4204 30.0334 27.4461 31.089 27.934 32.2079C28.3169 33.0814 28.5094 34.4519 28.5094 36.3227ZM43.0734 44.0602H38.9899C37.5889 44.0602 36.6945 43.8677 36.3081 43.4807C36.0065 43.1763 35.8536 42.5154 35.8536 41.4987C35.3399 41.5003 34.8278 41.4391 34.3289 41.3166C33.8064 41.1785 33.3118 40.9511 32.8667 40.6446C31.7896 39.9552 31.0981 39.0413 30.7944 37.903C30.5915 37.1524 30.4928 35.8327 30.4928 33.9439V27.4537C30.4928 26.5413 30.5143 25.7942 30.5664 25.216C30.6136 24.6496 30.7315 24.0914 30.9174 23.5544C31.3232 22.4987 32.0092 21.7308 32.9737 21.2541C33.939 20.7767 35.1323 20.5383 36.5513 20.5383C38.238 20.5383 39.6091 20.8184 40.6647 21.3778C41.7211 21.9344 42.4341 22.8038 42.7982 23.9832C42.9407 24.4085 43.0199 24.9818 43.0429 25.7025C43.0616 26.4238 43.0734 26.9666 43.0734 27.3349V34.16C43.0734 35.8647 43.0012 37.044 42.858 37.6945C42.5571 39.0927 41.5098 40.0087 39.721 40.4361C39.721 40.9434 39.812 41.2478 39.9962 41.3493C40.1776 41.45 40.5862 41.5001 41.2131 41.5001H43.0734V44.0602ZM37.6181 36.3227V25.4439C37.6181 24.8136 37.5701 24.3577 37.468 24.0728C37.3665 23.7879 37.1414 23.6454 36.796 23.6454C36.411 23.6454 36.1705 23.7983 36.0795 24.1034C35.9898 24.4078 35.9433 25.0159 35.9433 25.9325V36.6868C35.9433 37.2352 35.9947 37.6598 36.0968 37.9683C36.1983 38.2699 36.4207 38.4228 36.7661 38.4228C37.3339 38.4221 37.6181 37.723 37.6181 36.3227ZM55.6868 41.4994H45.2966V20.5383H50.7505V37.3255H55.6875V41.4994H55.6868Z" fill="#353535"/>
<path d="M28.5094 36.0229C28.5094 37.2217 28.4218 38.0792 28.2488 38.5949C28.0649 39.1327 27.7696 39.6258 27.3822 40.0418C26.977 40.49 26.4058 40.8097 25.6768 41.0015C24.9443 41.194 24.0694 41.2934 23.0554 41.2934C21.9581 41.2934 21.0533 41.1919 20.343 40.989C19.63 40.7854 19.0678 40.4393 18.6508 39.9507C18.2269 39.4488 17.9155 38.8618 17.7377 38.2293C17.5459 37.5712 17.45 36.5177 17.45 35.0764V34.2834H22.0186V36.2328C22.0186 36.9451 22.0651 37.4315 22.1555 37.697C22.2486 37.9604 22.4849 38.0917 22.8713 38.0917C23.521 38.0917 23.847 37.5247 23.847 36.3856C23.847 35.6539 23.806 35.1055 23.7233 34.7407C23.6413 34.3772 23.4001 33.9901 22.9936 33.5843C21.1019 32.2208 19.8045 31.2062 19.0949 30.5369C17.8968 29.4188 17.2964 27.7738 17.2964 25.6014C17.2964 24.8279 17.3429 24.1594 17.4333 23.5888C17.5236 23.0211 17.7127 22.4839 17.9983 21.9731C18.3809 21.3234 18.9876 20.8358 19.7044 20.6019C20.4334 20.358 21.4098 20.2378 22.6273 20.2378C23.8067 20.2378 24.7365 20.3094 25.4162 20.4518C26.0958 20.5943 26.6608 20.907 27.1084 21.3949C27.5559 21.8834 27.8485 22.5033 27.991 23.2539C28.0737 23.7014 28.1119 24.5235 28.1119 25.7223V25.9968H23.5766V25.0531C23.5766 24.5048 23.5655 24.1677 23.5468 24.0468C23.4641 23.5805 23.2125 23.3449 22.7844 23.3449C22.1951 23.3449 21.9011 23.8932 21.9011 24.9899C21.9011 25.8433 22.0387 26.4541 22.3125 26.819C22.587 27.1831 23.4335 27.8253 24.8574 28.7384C26.4204 29.7336 27.4461 30.7892 27.934 31.9081C28.3169 32.7816 28.5094 34.1528 28.5094 36.0229ZM43.0734 43.7611H38.9899C37.5889 43.7611 36.6945 43.5686 36.3081 43.1815C36.0065 42.8772 35.8536 42.2163 35.8536 41.1996C35.3399 41.2012 34.8278 41.14 34.3289 41.0175C33.8064 40.8794 33.3118 40.652 32.8667 40.3455C31.7896 39.6561 31.0981 38.7422 30.7944 37.6039C30.5915 36.8533 30.4928 35.5336 30.4928 33.6448V27.1546C30.4928 26.2422 30.5143 25.4951 30.5664 24.9169C30.6136 24.3505 30.7315 23.7923 30.9174 23.2553C31.3232 22.1996 32.0092 21.4317 32.9737 20.955C33.939 20.4776 35.1323 20.2392 36.5513 20.2392C38.238 20.2392 39.6091 20.5192 40.6647 21.0787C41.7211 21.6353 42.4341 22.5047 42.7982 23.684C42.9407 24.1094 43.0199 24.6827 43.0429 25.4034C43.0616 26.1247 43.0734 26.6675 43.0734 27.0358V33.8609C43.0734 35.5656 43.0012 36.7449 42.858 37.3954C42.5571 38.7936 41.5098 39.7096 39.721 40.137C39.721 40.6443 39.812 40.9487 39.9962 41.0501C40.1776 41.1509 40.5862 41.2009 41.2131 41.2009H43.0734V43.7611ZM37.6181 36.0229V25.1441C37.6181 24.5138 37.5701 24.0579 37.468 23.773C37.3665 23.4881 37.1414 23.3456 36.796 23.3456C36.411 23.3456 36.1705 23.4985 36.0795 23.8036C35.9898 24.108 35.9433 24.716 35.9433 25.6327V36.387C35.9433 36.9353 35.9947 37.36 36.0968 37.6685C36.1983 37.9701 36.4207 38.123 36.7661 38.123C37.3339 38.123 37.6181 37.4239 37.6181 36.0229ZM55.6868 41.1996H45.2966V20.2385H50.7505V37.0257H55.6875V41.1996H55.6868Z" fill="white"/>
</g>
<defs>
<filter id="filter0_d_390_2640" x="0" y="0" width="72" height="72" filterUnits="userSpaceOnUse" color-interpolation-filters="sRGB">
<feFlood flood-opacity="0" result="BackgroundImageFix"/>
<feColorMatrix in="SourceAlpha" type="matrix" values="0 0 0 0 0 0 0 0 0 0 0 0 0 0 0 0 0 0 127 0" result="hardAlpha"/>
<feOffset dy="4"/>
<feGaussianBlur stdDeviation="2"/>
<feComposite in2="hardAlpha" operator="out"/>
<feColorMatrix type="matrix" values="0 0 0 0 0 0 0 0 0 0 0 0 0 0 0 0 0 0 0.25 0"/>
<feBlend mode="normal" in2="BackgroundImageFix" result="effect1_dropShadow_390_2640"/>
<feBlend mode="normal" in="SourceGraphic" in2="effect1_dropShadow_390_2640" result="shape"/>
</filter>
</defs>
</svg>
