<svg width="72" height="72" viewBox="0 0 72 72" fill="none" xmlns="http://www.w3.org/2000/svg">
<path d="M66 0H6C2.68629 0 0 2.68629 0 6V66C0 69.3137 2.68629 72 6 72H66C69.3137 72 72 69.3137 72 66V6C72 2.68629 69.3137 0 66 0Z" fill="#F7DF1E"/>
<path d="M48.3658 56.2505C49.816 58.6185 51.7029 60.3591 55.0401 60.3591C57.8435 60.3591 59.6343 58.9579 59.6343 57.0219C59.6343 54.7019 57.7943 53.8802 54.7086 52.5305L53.0172 51.8048C48.1349 49.7248 44.8915 47.1191 44.8915 41.6105C44.8915 36.5362 48.7578 32.6733 54.8 32.6733C59.1018 32.6733 62.1943 34.1705 64.4229 38.0905L59.1543 41.4733C57.9943 39.3933 56.7429 38.5739 54.8 38.5739C52.8183 38.5739 51.5623 39.8311 51.5623 41.4733C51.5623 43.5031 52.8195 44.3248 55.7223 45.5819L57.4138 46.3065C63.1623 48.7716 66.4081 51.2848 66.4081 56.9351C66.4081 63.0265 61.6229 66.3636 55.1966 66.3636C48.9132 66.3636 44.8538 63.3693 42.8675 59.4448L48.3658 56.2505ZM24.4652 56.8368C25.528 58.7225 26.4949 60.3168 28.8195 60.3168C31.0423 60.3168 32.4446 59.4471 32.4446 56.0653V33.0596H39.2103V56.1568C39.2103 63.1625 35.1029 66.3511 29.1075 66.3511C23.6903 66.3511 20.5532 63.5476 18.9578 60.1711L24.4652 56.8368Z" fill="black"/>
</svg>
