<svg width="64" height="64" viewBox="0 0 64 64" fill="none" xmlns="http://www.w3.org/2000/svg">
<path d="M58 0H6C2.68629 0 0 2.68629 0 6V58C0 61.3137 2.68629 64 6 64H58C61.3137 64 64 61.3137 64 58V6C64 2.68629 61.3137 0 58 0Z" fill="#F7DF1E"/>
<path d="M42.9918 50.0004C44.2809 52.1053 45.9581 53.6525 48.9245 53.6525C51.4164 53.6525 53.0083 52.407 53.0083 50.6861C53.0083 48.6239 51.3727 47.8935 48.6299 46.6938L47.1264 46.0487C42.7866 44.1998 39.9035 41.8836 39.9035 36.9871C39.9035 32.4766 43.3402 29.043 48.7111 29.043C52.5349 29.043 55.2838 30.3738 57.2648 33.8582L52.5816 36.8652C51.5505 35.0163 50.4381 34.2879 48.7111 34.2879C46.9496 34.2879 45.8332 35.4054 45.8332 36.8652C45.8332 38.6694 46.9506 39.3998 49.5309 40.5173L51.0344 41.1613C56.1443 43.3526 59.0294 45.5865 59.0294 50.6089C59.0294 56.0235 54.7759 58.9899 49.0636 58.9899C43.4784 58.9899 39.87 56.3283 38.1044 52.8398L42.9918 50.0004ZM21.7468 50.5216C22.6916 52.1978 23.551 53.6149 25.6173 53.6149C27.5932 53.6149 28.8396 52.8418 28.8396 49.8359V29.3863H34.8536V49.9171C34.8536 56.1444 31.2026 58.9787 25.8733 58.9787C21.058 58.9787 18.2695 56.4868 16.8513 53.4854L21.7468 50.5216Z" fill="black"/>
</svg>
