<svg width="72" height="72" viewBox="0 0 72 72" fill="none" xmlns="http://www.w3.org/2000/svg">
<g clip-path="url(#clip0_390_2615)">
<path d="M36 72C55.8823 72 72 55.8823 72 36C72 16.1177 55.8823 0 36 0C16.1177 0 0 16.1177 0 36C0 55.8823 16.1177 72 36 72Z" fill="#5C2D91"/>
<path opacity="0.1" d="M11.0475 10.125C7.38783 13.3862 4.43272 17.3604 2.3633 21.804C0.293887 26.2476 -0.846239 31.0671 -0.987189 35.9669C-1.12814 40.8668 -0.266942 45.7438 1.54361 50.299C3.35417 54.8543 6.07593 58.9918 9.54208 62.4579C13.0082 65.9241 17.1457 68.6458 21.701 70.4564C26.2562 72.2669 31.1332 73.1281 36.0331 72.9872C40.9329 72.8462 45.7524 71.7061 50.196 69.6367C54.6396 67.5673 58.6138 64.6122 61.875 60.9525L11.0475 10.125Z" fill="white"/>
<path d="M8.32503 41.9061C8.11504 41.9094 7.90663 41.8691 7.713 41.7878C7.51936 41.7064 7.34469 41.5858 7.20003 41.4336C7.05141 41.2867 6.93395 41.1114 6.85469 40.9181C6.77544 40.7248 6.73601 40.5175 6.73878 40.3086C6.73728 40.0998 6.77729 39.8929 6.85647 39.6998C6.93566 39.5066 7.05244 39.3312 7.20003 39.1836C7.34327 39.0287 7.51741 38.9056 7.7112 38.8223C7.90499 38.739 8.11411 38.6973 8.32503 38.6998C8.53566 38.6993 8.74415 38.742 8.93764 38.8252C9.13113 38.9084 9.30552 39.0303 9.45003 39.1836C9.60017 39.3298 9.71937 39.5048 9.80054 39.6981C9.88171 39.8913 9.9232 40.099 9.92253 40.3086C9.9245 40.5184 9.8836 40.7264 9.80236 40.9198C9.72111 41.1133 9.60122 41.2881 9.45003 41.4336C9.30415 41.5842 9.12925 41.7038 8.9359 41.785C8.74255 41.8662 8.53475 41.9074 8.32503 41.9061Z" fill="white"/>
<path d="M30.6787 41.625H27.7312L17.1899 25.2675C16.9274 24.8644 16.7086 24.4345 16.5374 23.985H16.4474C16.5476 24.9189 16.5852 25.8585 16.5599 26.7975V41.625H14.1637V21.1162H17.2799L27.5399 37.1812C27.9674 37.8487 28.2449 38.3062 28.3724 38.5537H28.4287C28.31 37.5533 28.2611 36.5459 28.2824 35.5387V21.1162H30.6787V41.625Z" fill="white"/>
<path d="M46.9012 41.625H36V21.1162H46.395V23.2875H38.4525V30.105H45.855V32.265H38.4525V39.375H46.9125L46.9012 41.625Z" fill="white"/>
<path d="M63 23.2875H57.0375V41.625H54.6412V23.2875H48.7462V21.1162H63V23.2875Z" fill="white"/>
<path d="M29.385 55.5748C28.5728 55.9682 27.6769 56.1574 26.775 56.1261C26.1757 56.1531 25.5776 56.0516 25.0207 55.8285C24.4638 55.6053 23.9611 55.2657 23.5463 54.8323C22.7196 53.907 22.2841 52.6972 22.3313 51.4573C22.301 50.786 22.4059 50.1155 22.6397 49.4855C22.8736 48.8555 23.2316 48.2788 23.6925 47.7898C24.1417 47.3297 24.6817 46.968 25.2783 46.7278C25.8748 46.4877 26.5148 46.3743 27.1575 46.3948C27.9267 46.3686 28.693 46.5026 29.4075 46.7886V47.9136C28.7195 47.5327 27.9438 47.3388 27.1575 47.3511C26.6618 47.3371 26.169 47.4304 25.7127 47.6246C25.2564 47.8188 24.8474 48.1092 24.5138 48.4761C23.8121 49.2754 23.449 50.3163 23.5013 51.3786C23.4487 52.3849 23.7873 53.3725 24.4463 54.1348C24.7623 54.4747 25.1482 54.7422 25.5773 54.9189C26.0065 55.0956 26.4688 55.1774 26.9325 55.1586C27.7963 55.1812 28.6494 54.9631 29.3963 54.5286L29.385 55.5748Z" fill="#F2F2F2"/>
<path d="M33.9862 56.126C33.5384 56.1405 33.0927 56.0586 32.6793 55.8859C32.2658 55.7131 31.8944 55.4536 31.59 55.1248C30.9748 54.4383 30.6554 53.5367 30.7012 52.616C30.6731 52.1337 30.7412 51.6506 30.9015 51.1948C31.0618 50.739 31.3111 50.3196 31.635 49.961C31.9655 49.6385 32.3587 49.3872 32.7902 49.2227C33.2217 49.0582 33.6824 48.984 34.1437 49.0048C34.5798 48.9815 35.0158 49.053 35.4216 49.2142C35.8275 49.3753 36.1936 49.6224 36.495 49.9385C37.0929 50.6591 37.3945 51.5801 37.3387 52.5148C37.3859 53.4634 37.0587 54.3926 36.4275 55.1023C36.1174 55.4375 35.739 55.7023 35.3179 55.8789C34.8968 56.0555 34.4427 56.1397 33.9862 56.126ZM34.065 49.9723C33.7555 49.9592 33.4471 50.0162 33.1627 50.1389C32.8783 50.2616 32.6253 50.4469 32.4225 50.681C31.9896 51.2384 31.7737 51.934 31.815 52.6385C31.7757 53.3221 31.9923 53.9958 32.4225 54.5285C32.6274 54.7593 32.8811 54.9416 33.1652 55.0622C33.4493 55.1829 33.7566 55.2388 34.065 55.226C34.3669 55.2438 34.6688 55.1923 34.9477 55.0753C35.2266 54.9583 35.4749 54.7789 35.6737 54.551C36.0827 53.9921 36.2819 53.3071 36.2362 52.616C36.2807 51.9216 36.0818 51.2334 35.6737 50.6698C35.4777 50.4371 35.2304 50.253 34.9513 50.132C34.6722 50.011 34.3688 49.9563 34.065 49.9723Z" fill="#F2F2F2"/>
<path d="M42.5926 50.31C42.3496 50.1508 42.0611 50.0757 41.7713 50.0963C41.5447 50.1045 41.3235 50.1683 41.1274 50.2821C40.9312 50.3959 40.766 50.5562 40.6463 50.7488C40.3115 51.2789 40.1502 51.9002 40.1851 52.5263V55.9688H39.0601V49.2188H40.1851V50.625C40.3087 50.1899 40.5547 49.7994 40.8938 49.5C41.1872 49.2454 41.5628 49.1055 41.9513 49.1063C42.1688 49.0965 42.3862 49.127 42.5926 49.1963V50.31Z" fill="#F2F2F2"/>
<path d="M49.185 52.8749H44.4263C44.3944 53.5038 44.599 54.1219 45 54.6074C45.2086 54.8154 45.4587 54.977 45.7339 55.0817C46.0092 55.1864 46.3035 55.2317 46.5975 55.2149C47.3602 55.2073 48.0977 54.9416 48.69 54.4611V55.4736C47.9945 55.9321 47.1708 56.1567 46.3388 56.1149C45.919 56.1361 45.4997 56.0644 45.1108 55.9049C44.7218 55.7455 44.3729 55.5022 44.0888 55.1924C43.5031 54.4618 43.2104 53.5395 43.2675 52.6049C43.2271 51.668 43.5449 50.7509 44.1563 50.0399C44.4345 49.7185 44.7807 49.4629 45.1699 49.2917C45.559 49.1205 45.9813 49.0379 46.4063 49.0499C46.79 49.0284 47.1736 49.0941 47.5282 49.2422C47.8829 49.3903 48.1993 49.6169 48.4538 49.9049C48.9718 50.5879 49.2273 51.4343 49.1738 52.2899L49.185 52.8749ZM48.06 51.9636C48.0829 51.4423 47.9238 50.9293 47.61 50.5124C47.4561 50.3385 47.2648 50.2016 47.0505 50.1119C46.8362 50.0223 46.6045 49.9823 46.3725 49.9949C46.1304 49.9919 45.8904 50.0394 45.6676 50.1343C45.4449 50.2292 45.2443 50.3695 45.0788 50.5461C44.7085 50.9378 44.4756 51.4393 44.415 51.9749L48.06 51.9636Z" fill="#F2F2F2"/>
</g>
<defs>
<clipPath id="clip0_390_2615">
<rect width="72" height="72" fill="white"/>
</clipPath>
</defs>
</svg>
