<svg width="64" height="64" viewBox="0 0 64 64" fill="none" xmlns="http://www.w3.org/2000/svg">
<g clip-path="url(#clip0_390_2614)">
<path d="M32 64C49.6731 64 64 49.6731 64 32C64 14.3269 49.6731 0 32 0C14.3269 0 0 14.3269 0 32C0 49.6731 14.3269 64 32 64Z" fill="#5C2D91"/>
<path opacity="0.1" d="M9.81998 9C6.56695 11.8988 3.94018 15.4314 2.1007 19.3813C0.261219 23.3312 -0.752226 27.6152 -0.877515 31.9706C-1.0028 36.326 -0.237295 40.6611 1.37209 44.7102C2.98147 48.7593 5.40082 52.4371 8.48184 55.5181C11.5629 58.5992 15.2406 61.0185 19.2897 62.6279C23.3388 64.2373 27.674 65.0028 32.0294 64.8775C36.3848 64.7522 40.6688 63.7388 44.6187 61.8993C48.5686 60.0598 52.1012 57.433 55 54.18L9.81998 9Z" fill="white"/>
<path d="M7.39999 37.25C7.21332 37.2529 7.02808 37.2171 6.85596 37.1448C6.68383 37.0726 6.52857 36.9653 6.39999 36.83C6.26788 36.6995 6.16347 36.5436 6.09302 36.3718C6.02257 36.2 5.98753 36.0157 5.98999 35.83C5.98866 35.6445 6.02422 35.4605 6.0946 35.2888C6.16499 35.1172 6.26879 34.9612 6.39999 34.83C6.52731 34.6924 6.6821 34.583 6.85436 34.5089C7.02662 34.4348 7.2125 34.3977 7.39999 34.4C7.58721 34.3995 7.77254 34.4375 7.94453 34.5114C8.11652 34.5854 8.27153 34.6938 8.39999 34.83C8.53345 34.96 8.6394 35.1156 8.71155 35.2873C8.7837 35.4591 8.82058 35.6437 8.81999 35.83C8.82174 36.0165 8.78539 36.2014 8.71317 36.3733C8.64095 36.5453 8.53438 36.7007 8.39999 36.83C8.27031 36.9639 8.11485 37.0702 7.94298 37.1424C7.77111 37.2145 7.5864 37.2512 7.39999 37.25Z" fill="white"/>
<path d="M27.27 37H24.65L15.28 22.46C15.0466 22.1018 14.8521 21.7196 14.7 21.32H14.62C14.709 22.1502 14.7424 22.9854 14.72 23.82V37H12.59V18.77H15.36L24.48 33.05C24.86 33.6434 25.1066 34.05 25.22 34.27H25.27C25.1644 33.3808 25.121 32.4853 25.14 31.59V18.77H27.27V37Z" fill="white"/>
<path d="M41.69 37H32V18.77H41.24V20.7H34.18V26.76H40.76V28.68H34.18V35H41.7L41.69 37Z" fill="white"/>
<path d="M56 20.7H50.7V37H48.57V20.7H43.33V18.77H56V20.7Z" fill="white"/>
<path d="M26.12 49.4002C25.398 49.7498 24.6017 49.918 23.8 49.8902C23.2673 49.9142 22.7356 49.824 22.2406 49.6256C21.7456 49.4273 21.2987 49.1254 20.93 48.7402C20.1952 47.9177 19.8081 46.8423 19.85 45.7402C19.8231 45.1435 19.9163 44.5474 20.1242 43.9874C20.332 43.4274 20.6503 42.9148 21.06 42.4802C21.4593 42.0711 21.9393 41.7497 22.4695 41.5362C22.9998 41.3227 23.5687 41.2219 24.14 41.2402C24.8237 41.2168 25.5048 41.336 26.14 41.5902V42.5902C25.5285 42.2516 24.8389 42.0792 24.14 42.0902C23.6994 42.0778 23.2613 42.1607 22.8557 42.3333C22.4501 42.5059 22.0866 42.7641 21.79 43.0902C21.1663 43.8007 20.8436 44.7259 20.89 45.6702C20.8433 46.5646 21.1443 47.4425 21.73 48.1202C22.0109 48.4223 22.3539 48.66 22.7354 48.8171C23.1168 48.9742 23.5278 49.0469 23.94 49.0302C24.7078 49.0503 25.4661 48.8564 26.13 48.4702L26.12 49.4002Z" fill="#F2F2F2"/>
<path d="M30.21 49.89C29.812 49.9028 29.4158 49.83 29.0483 49.6765C28.6808 49.5229 28.3506 49.2922 28.08 49C27.5332 48.3897 27.2493 47.5883 27.29 46.77C27.2651 46.3412 27.3256 45.9118 27.4681 45.5066C27.6106 45.1015 27.8322 44.7287 28.12 44.41C28.4138 44.1232 28.7633 43.8999 29.1469 43.7537C29.5304 43.6075 29.9399 43.5415 30.35 43.56C30.7377 43.5393 31.1252 43.6028 31.4859 43.7461C31.8467 43.8894 32.1722 44.109 32.44 44.39C32.9715 45.0305 33.2396 45.8491 33.19 46.68C33.232 47.5232 32.9411 48.3491 32.38 48.98C32.1044 49.2779 31.768 49.5133 31.3937 49.6703C31.0194 49.8272 30.6158 49.9022 30.21 49.89ZM30.28 44.42C30.005 44.4084 29.7308 44.459 29.478 44.5681C29.2252 44.6772 29.0003 44.8419 28.82 45.05C28.4352 45.5454 28.2434 46.1637 28.28 46.79C28.2451 47.3976 28.4376 47.9965 28.82 48.47C29.0022 48.6751 29.2277 48.8371 29.4802 48.9444C29.7327 49.0516 30.0059 49.1013 30.28 49.09C30.5484 49.1058 30.8168 49.06 31.0647 48.9559C31.3126 48.8519 31.5333 48.6925 31.71 48.49C32.0736 47.9932 32.2506 47.3842 32.21 46.77C32.2496 46.1527 32.0728 45.541 31.71 45.04C31.5358 44.8332 31.316 44.6695 31.0679 44.562C30.8197 44.4544 30.5501 44.4058 30.28 44.42Z" fill="#F2F2F2"/>
<path d="M37.86 44.72C37.644 44.5785 37.3875 44.5118 37.13 44.53C36.9285 44.5373 36.732 44.5941 36.5576 44.6952C36.3832 44.7964 36.2364 44.9388 36.13 45.11C35.8323 45.5812 35.689 46.1335 35.72 46.69V49.75H34.72V43.75H35.72V45C35.8299 44.6132 36.0486 44.2662 36.35 44C36.6108 43.7737 36.9447 43.6494 37.29 43.65C37.4833 43.6413 37.6765 43.6685 37.86 43.73V44.72Z" fill="#F2F2F2"/>
<path d="M43.72 47.0002H39.49C39.4616 47.5592 39.6436 48.1086 40 48.5402C40.1854 48.7251 40.4077 48.8688 40.6523 48.9618C40.897 49.0549 41.1586 49.0952 41.42 49.0802C42.0979 49.0735 42.7535 48.8373 43.28 48.4102V49.3102C42.6617 49.7177 41.9296 49.9174 41.19 49.8802C40.8168 49.8991 40.4441 49.8353 40.0984 49.6936C39.7527 49.5518 39.4425 49.3356 39.19 49.0602C38.6694 48.4109 38.4092 47.5909 38.46 46.7602C38.424 45.9274 38.7065 45.1122 39.25 44.4802C39.4973 44.1945 39.8051 43.9673 40.151 43.8152C40.4969 43.663 40.8722 43.5895 41.25 43.6002C41.5911 43.5811 41.932 43.6396 42.2473 43.7712C42.5625 43.9028 42.8438 44.1042 43.07 44.3602C43.5304 44.9674 43.7576 45.7197 43.71 46.4802L43.72 47.0002ZM42.72 46.1902C42.7403 45.7268 42.5989 45.2708 42.32 44.9002C42.1832 44.7456 42.0131 44.6239 41.8227 44.5443C41.6322 44.4646 41.4262 44.429 41.22 44.4402C41.0048 44.4376 40.7914 44.4798 40.5934 44.5642C40.3954 44.6485 40.2172 44.7732 40.07 44.9302C39.7409 45.2784 39.5338 45.7241 39.48 46.2002L42.72 46.1902Z" fill="#F2F2F2"/>
</g>
<defs>
<clipPath id="clip0_390_2614">
<rect width="64" height="64" fill="white"/>
</clipPath>
</defs>
</svg>
