<svg width="72" height="72" viewBox="0 0 72 72" fill="none" xmlns="http://www.w3.org/2000/svg">
<path d="M64.9688 0H7.03125C3.148 0 0 3.148 0 7.03125V64.9688C0 68.852 3.148 72 7.03125 72H64.9688C68.852 72 72 68.852 72 64.9688V7.03125C72 3.148 68.852 0 64.9688 0Z" fill="#3178C6"/>
<path fill-rule="evenodd" clip-rule="evenodd" d="M44.5781 57.2345V64.2658C45.7172 64.8564 47.1094 65.2923 48.6562 65.5876C50.2031 65.8829 51.8906 66.0236 53.5781 66.0236C55.2656 66.0236 56.8125 65.8689 58.3594 65.5454C59.9062 65.222 61.1719 64.6876 62.2969 63.9986C63.4359 63.2533 64.4062 62.3111 64.9688 61.0455C65.5312 59.7798 65.9672 58.3736 65.9672 56.5455C65.9672 55.2658 65.7703 54.1548 65.3906 53.1705C65.0109 52.1861 64.4625 51.3423 63.7031 50.6392C62.9859 49.8939 62.1562 49.233 61.1719 48.6705C60.1875 48.108 59.0625 47.5173 57.7969 46.983C56.8688 46.6033 56.1094 46.2376 55.2656 45.872C54.5344 45.5064 53.9016 45.1408 53.4375 44.7751C52.9172 44.3954 52.5234 44.0017 52.2422 43.5939C51.9609 43.172 51.8203 42.7079 51.8203 42.1876C51.8203 41.7095 51.9455 41.2736 52.2 40.8798C52.4545 40.4861 52.8047 40.1626 53.2547 39.8814C53.7047 39.6001 54.2672 39.3892 54.9422 39.2345C55.6031 39.0798 56.3344 39.0095 57.1922 39.0095C57.7828 39.0095 58.4016 39.0531 59.0203 39.1417C59.6672 39.2303 60.3281 39.3667 60.9891 39.5495C61.65 39.7323 62.2969 39.9573 62.9578 40.2386C63.5766 40.5198 64.1531 40.8433 64.6453 41.2089V34.5995C63.5766 34.1917 62.3953 33.8823 61.1297 33.6854C59.8641 33.4886 58.4578 33.3901 56.7703 33.3901C55.0828 33.3901 53.5359 33.5729 51.9891 33.9245C50.4422 34.2761 49.1766 34.8386 48.0516 35.612C46.9125 36.3714 46.0828 37.2995 45.3797 38.5651C44.7188 39.7464 44.3953 41.0964 44.3953 42.7839C44.3953 44.8933 45 46.7214 46.2234 48.1276C47.4328 49.6745 49.3172 50.7995 51.7078 51.9245C52.6781 52.3183 53.5359 52.712 54.3797 53.0917C55.2234 53.4714 55.9266 53.8651 56.4891 54.2729C57.0938 54.6808 57.5719 55.1308 57.8953 55.6089C58.2469 56.087 58.4297 56.6495 58.4297 57.2964C58.4297 57.7464 58.32 58.1683 58.1063 58.562C57.8925 58.9558 57.5578 59.2933 57.1078 59.5745C56.6578 59.8558 56.1094 60.0808 55.4203 60.2495C54.7594 60.4042 54.0141 60.4886 53.0297 60.4886C51.4828 60.4886 49.9359 60.2214 48.5297 59.687C46.9828 59.1526 45.5766 58.3511 44.3109 57.2964L44.5781 57.2345ZM32.7656 39.9376H41.7656V34.172H16.5938V39.9376H25.5938V65.672H32.7656V39.9376Z" fill="white"/>
</svg>
