<svg width="64" height="64" viewBox="0 0 64 64" fill="none" xmlns="http://www.w3.org/2000/svg">
<path d="M57.75 0H6.25C2.79822 0 0 2.79822 0 6.25V57.75C0 61.2018 2.79822 64 6.25 64H57.75C61.2018 64 64 61.2018 64 57.75V6.25C64 2.79822 61.2018 0 57.75 0Z" fill="#3178C6"/>
<path fill-rule="evenodd" clip-rule="evenodd" d="M39.625 50.8752V57.1252C40.6375 57.6502 41.875 58.0377 43.25 58.3002C44.625 58.5627 46.125 58.6877 47.625 58.6877C49.125 58.6877 50.5 58.5502 51.875 58.2627C53.25 57.9752 54.375 57.5002 55.375 56.8877C56.3875 56.2252 57.25 55.3877 57.75 54.2627C58.25 53.1377 58.6375 51.8877 58.6375 50.2627C58.6375 49.1252 58.4625 48.1377 58.125 47.2627C57.7875 46.3877 57.3 45.6377 56.625 45.0127C55.9875 44.3502 55.25 43.7627 54.375 43.2627C53.5 42.7627 52.5 42.2377 51.375 41.7627C50.55 41.4252 49.875 41.1002 49.125 40.7752C48.475 40.4502 47.9125 40.1252 47.5 39.8002C47.0375 39.4627 46.6875 39.1127 46.4375 38.7502C46.1875 38.3752 46.0625 37.9627 46.0625 37.5002C46.0625 37.0752 46.1738 36.6877 46.4 36.3377C46.6263 35.9877 46.9375 35.7002 47.3375 35.4502C47.7375 35.2002 48.2375 35.0127 48.8375 34.8752C49.425 34.7377 50.075 34.6752 50.8375 34.6752C51.3625 34.6752 51.9125 34.7139 52.4625 34.7927C53.0375 34.8714 53.625 34.9927 54.2125 35.1552C54.8 35.3177 55.375 35.5177 55.9625 35.7677C56.5125 36.0177 57.025 36.3052 57.4625 36.6302V30.7552C56.5125 30.3927 55.4625 30.1177 54.3375 29.9427C53.2125 29.7677 51.9625 29.6802 50.4625 29.6802C48.9625 29.6802 47.5875 29.8427 46.2125 30.1552C44.8375 30.4677 43.7125 30.9677 42.7125 31.6552C41.7 32.3302 40.9625 33.1552 40.3375 34.2802C39.75 35.3302 39.4625 36.5302 39.4625 38.0302C39.4625 39.9052 40 41.5302 41.0875 42.7802C42.1625 44.1552 43.8375 45.1552 45.9625 46.1552C46.825 46.5052 47.5875 46.8552 48.3375 47.1927C49.0875 47.5302 49.7125 47.8802 50.2125 48.2427C50.75 48.6052 51.175 49.0052 51.4625 49.4302C51.775 49.8552 51.9375 50.3552 51.9375 50.9302C51.9375 51.3302 51.84 51.7052 51.65 52.0552C51.46 52.4052 51.1625 52.7052 50.7625 52.9552C50.3625 53.2052 49.875 53.4052 49.2625 53.5552C48.675 53.6927 48.0125 53.7677 47.1375 53.7677C45.7625 53.7677 44.3875 53.5302 43.1375 53.0552C41.7625 52.5802 40.5125 51.8677 39.3875 50.9302L39.625 50.8752ZM29.125 35.5002H37.125V30.3752H14.75V35.5002H22.75V58.3752H29.125V35.5002Z" fill="white"/>
</svg>
