<svg width="64" height="64" viewBox="0 0 64 64" fill="none" xmlns="http://www.w3.org/2000/svg">
<g clip-path="url(#clip0_390_2621)">
<path d="M14.2249 0H49.6749C51.3999 0 53.0749 0.275 54.6999 0.85C57.0499 1.7 59.1749 3.2 60.7749 5.15C62.3999 7.1 63.4749 9.5 63.8499 12C63.9999 12.925 64.0249 13.85 64.0249 14.775V49.35C64.0249 50.45 63.9749 51.575 63.7499 52.65C63.2499 55.125 62.0749 57.45 60.3749 59.325C58.6999 61.2 56.4999 62.6 54.1249 63.35C52.6749 63.8 51.1749 64 49.6499 64C48.9749 64 14.1249 64 13.5999 63.975C11.0499 63.85 8.52494 63.025 6.39994 61.6C4.32494 60.2 2.62494 58.25 1.52494 56C0.574945 54.075 0.0999445 51.925 0.0999445 49.775V14.225C0.0499445 12.1 0.499944 10 1.42494 8.1C2.49994 5.85 4.17494 3.875 6.24994 2.475C8.37494 1.025 10.8749 0.175 13.4249 0.05C13.6749 0 13.9499 0 14.2249 0Z" fill="url(#paint0_linear_390_2621)"/>
<path d="M54 52.35C53.775 52 53.525 51.65 53.25 51.325C52.625 50.575 51.9 49.925 51.1 49.375C50.1 48.7 48.925 48.275 47.725 48.225C46.875 48.175 46.025 48.325 45.225 48.625C44.425 48.9 43.65 49.3 42.9 49.7C42.025 50.15 41.15 50.6 40.225 50.975C39.125 51.425 37.975 51.775 36.8 52.025C35.325 52.3 33.825 52.4 32.35 52.375C29.675 52.325 27 51.925 24.45 51.175C22.2 50.5 20.05 49.575 18.025 48.4C16.25 47.375 14.6 46.2 13.05 44.875C11.775 43.775 10.6 42.6 9.5 41.35C8.75 40.475 8.025 39.55 7.35 38.6C7.075 38.225 6.825 37.825 6.6 37.425L0 30.3V14.175C0 6.35 6.325 0 14.15 0H26.775L36.125 9.5C57.225 23.85 50.4 39.675 50.4 39.675C50.4 39.675 56.4 46.425 54 52.35Z" fill="url(#paint1_linear_390_2621)"/>
<path d="M36.175 9.5C57.275 23.85 50.45 39.675 50.45 39.675C50.45 39.675 56.45 46.45 54.025 52.375C54.025 52.375 51.55 48.225 47.4 48.225C43.4 48.225 41.05 52.375 33 52.375C15.075 52.375 6.59998 37.4 6.59998 37.4C22.75 48.025 33.775 40.5 33.775 40.5C26.5 36.275 11.025 16.075 11.025 16.075C24.5 27.55 30.325 30.575 30.325 30.575C26.85 27.7 17.1 13.65 17.1 13.65C24.9 21.55 40.4 32.575 40.4 32.575C44.8 20.375 36.175 9.5 36.175 9.5Z" fill="white"/>
</g>
<defs>
<linearGradient id="paint0_linear_390_2621" x1="38.0727" y1="-2.28375" x2="25.9809" y2="66.2915" gradientUnits="userSpaceOnUse">
<stop stop-color="#FAAE42"/>
<stop offset="1" stop-color="#EF3E31"/>
</linearGradient>
<linearGradient id="paint1_linear_390_2621" x1="32.653" y1="1.034" x2="23.8033" y2="51.2232" gradientUnits="userSpaceOnUse">
<stop stop-color="#E39F3A"/>
<stop offset="1" stop-color="#D33929"/>
</linearGradient>
<clipPath id="clip0_390_2621">
<rect width="64" height="64" fill="white"/>
</clipPath>
</defs>
</svg>
