<svg width="72" height="72" viewBox="0 0 72 72" fill="none" xmlns="http://www.w3.org/2000/svg">
<g clip-path="url(#clip0_390_2622)">
<path d="M16.0031 0H55.8844C57.825 0 59.7094 0.309375 61.5375 0.95625C64.1812 1.9125 66.5719 3.6 68.3719 5.79375C70.2 7.9875 71.4094 10.6875 71.8312 13.5C72 14.5406 72.0281 15.5812 72.0281 16.6219V55.5187C72.0281 56.7562 71.9719 58.0219 71.7188 59.2313C71.1562 62.0156 69.8344 64.6312 67.9219 66.7406C66.0375 68.85 63.5625 70.425 60.8906 71.2687C59.2594 71.775 57.5719 72 55.8562 72C55.0969 72 15.8906 72 15.3 71.9719C12.4312 71.8312 9.59062 70.9031 7.2 69.3C4.86562 67.725 2.95312 65.5312 1.71562 63C0.646874 60.8344 0.112499 58.4156 0.112499 55.9969V16.0031C0.0562486 13.6125 0.562499 11.25 1.60312 9.1125C2.8125 6.58125 4.69687 4.35938 7.03125 2.78437C9.42187 1.15312 12.2344 0.196875 15.1031 0.05625C15.3844 0 15.6937 0 16.0031 0Z" fill="url(#paint0_linear_390_2622)"/>
<path d="M60.75 58.8937C60.4969 58.5 60.2156 58.1063 59.9063 57.7406C59.2031 56.8969 58.3875 56.1656 57.4875 55.5469C56.3625 54.7875 55.0406 54.3094 53.6906 54.2531C52.7344 54.1969 51.7781 54.3656 50.8781 54.7031C49.9781 55.0125 49.1063 55.4625 48.2625 55.9125C47.2781 56.4188 46.2938 56.925 45.2531 57.3469C44.0156 57.8531 42.7219 58.2469 41.4 58.5281C39.7406 58.8375 38.0531 58.95 36.3938 58.9219C33.3844 58.8656 30.375 58.4156 27.5063 57.5719C24.975 56.8125 22.5563 55.7719 20.2781 54.45C18.2813 53.2969 16.425 51.975 14.6813 50.4844C13.2469 49.2469 11.925 47.925 10.6875 46.5187C9.84375 45.5344 9.02813 44.4937 8.26875 43.425C7.95938 43.0031 7.67813 42.5531 7.425 42.1031L0 34.0875V15.9469C0 7.14375 7.11563 0 15.9188 0H30.1219L40.6406 10.6875C64.3781 26.8313 56.7 44.6344 56.7 44.6344C56.7 44.6344 63.45 52.2281 60.75 58.8937Z" fill="url(#paint1_linear_390_2622)"/>
<path d="M40.6969 10.6875C64.4344 26.8313 56.7563 44.6344 56.7563 44.6344C56.7563 44.6344 63.5063 52.2562 60.7782 58.9219C60.7782 58.9219 57.9938 54.2531 53.3251 54.2531C48.8251 54.2531 46.1813 58.9219 37.125 58.9219C16.9594 58.9219 7.42505 42.075 7.42505 42.075C25.5938 54.0281 37.9969 45.5625 37.9969 45.5625C29.8125 40.8094 12.4032 18.0844 12.4032 18.0844C27.5625 30.9938 34.1157 34.3969 34.1157 34.3969C30.2063 31.1625 19.2375 15.3562 19.2375 15.3562C28.0125 24.2437 45.4501 36.6469 45.4501 36.6469C50.4001 22.9219 40.6969 10.6875 40.6969 10.6875Z" fill="white"/>
</g>
<defs>
<linearGradient id="paint0_linear_390_2622" x1="42.8318" y1="-2.56922" x2="29.2286" y2="74.5779" gradientUnits="userSpaceOnUse">
<stop stop-color="#FAAE42"/>
<stop offset="1" stop-color="#EF3E31"/>
</linearGradient>
<linearGradient id="paint1_linear_390_2622" x1="36.7346" y1="1.16325" x2="26.7787" y2="57.6262" gradientUnits="userSpaceOnUse">
<stop stop-color="#E39F3A"/>
<stop offset="1" stop-color="#D33929"/>
</linearGradient>
<clipPath id="clip0_390_2622">
<rect width="72" height="72" fill="white"/>
</clipPath>
</defs>
</svg>
