<svg width="72" height="72" viewBox="0 0 72 72" fill="none" xmlns="http://www.w3.org/2000/svg">
<path d="M68.425 56.4149H67.9359V56.2656H69.2525V56.4149H68.7667V57.1595H68.425V56.4149ZM71.051 56.4537H71.0434L70.5588 57.1596H70.3371L69.8556 56.4537H69.8496V57.1596H69.5275V56.2658H70.0015L70.4479 56.8987L70.8929 56.2658H71.3652V57.1596H71.0508V56.4537H71.051Z" fill="#E76F00"/>
<path d="M24.6434 38.1367C24.6434 38.1367 21.2407 39.2161 27.065 39.5813C34.121 40.0204 37.7273 39.9574 45.503 39.1547C45.503 39.1547 47.5474 39.8539 50.4024 40.4594C32.9712 44.5344 10.9522 40.2234 24.6434 38.1367Z" fill="#5382A1"/>
<path d="M22.5135 32.8193C22.5135 32.8193 18.697 34.3603 24.5256 34.6891C32.0631 35.1133 38.0156 35.1479 48.3156 34.0661C48.3156 34.0661 49.7403 34.8539 51.9804 35.2847C30.9051 38.6462 7.43091 35.5498 22.5135 32.8193Z" fill="#5382A1"/>
<path d="M40.47 23.7993C44.765 26.4966 39.3415 28.9238 39.3415 28.9238C39.3415 28.9238 50.2473 25.8529 45.2388 22.0075C40.5609 18.4213 36.9737 16.6395 56.3937 10.4961C56.3937 10.4961 25.9106 14.6488 40.47 23.7993Z" fill="#E76F00"/>
<path d="M63.5242 42.07C63.5242 42.07 66.0423 43.2017 60.751 44.0772C50.6895 45.7397 18.8739 46.2418 10.0356 44.1434C6.85851 43.3895 12.8165 42.3433 14.6907 42.1238C16.6452 41.8926 17.7622 41.9357 17.7622 41.9357C14.2289 40.578 -5.07549 44.6015 7.95651 45.7538C43.4967 48.8975 72.7428 44.3381 63.5242 42.07Z" fill="#5382A1"/>
<path d="M26.2798 27.3097C26.2798 27.3097 10.0964 29.4063 20.5488 30.1677C24.9622 30.49 33.7601 30.4171 41.9552 30.0425C48.6526 29.7344 55.3776 29.0792 55.3776 29.0792C55.3776 29.0792 53.016 29.6308 51.3075 30.2672C34.8735 32.6247 3.12603 31.5279 12.2657 29.1165C19.9951 27.0785 26.2798 27.3097 26.2798 27.3097Z" fill="#5382A1"/>
<path d="M55.3109 36.1613C72.0168 31.4262 64.2926 26.8758 58.9013 27.4889C57.5798 27.6389 56.9906 27.7689 56.9906 27.7689C56.9906 27.7689 57.4812 27.3497 58.4181 27.1683C69.084 25.123 77.2867 33.2007 54.9751 36.4C54.9751 36.4001 55.2336 36.274 55.3109 36.1613Z" fill="#5382A1"/>
<path d="M45.2388 0.575684C45.2388 0.575684 54.4908 5.62393 36.4637 13.3867C22.0078 19.6138 33.1673 23.1643 36.4577 27.2209C28.0195 23.0682 21.827 19.4126 25.9814 16.0103C32.0791 11.0159 48.9718 8.59452 45.2388 0.575684Z" fill="#E76F00"/>
<path d="M27.9214 48.9923C43.957 49.5522 68.5814 48.6817 69.1646 44.543C69.1646 44.543 68.0436 46.1119 55.9121 47.3579C42.2254 48.7628 25.3447 48.5988 15.3326 47.6984C15.3329 47.6983 17.3822 48.6237 27.9214 48.9923Z" fill="#5382A1"/>
<path d="M25.2934 64.8063C23.7807 65.522 22.183 65.9237 20.7492 65.9237C18.7027 65.9237 17.5971 65.2544 17.5971 64.1808C17.5971 63.0195 18.7817 62.1704 23.5344 62.1704H25.2931V64.8063M29.4675 67.3751V59.4234C29.4675 57.3921 27.3435 56.0518 22.2223 56.0518C19.2327 56.0518 16.6138 56.4544 14.4852 56.968L15.0996 58.3755C16.7755 58.04 18.9449 57.7277 21.0742 57.7277C24.0243 57.7277 25.2934 58.3755 25.2934 59.715V60.72H23.821C16.6534 60.72 13.4201 62.2376 13.4201 64.5156C13.4201 66.4814 15.5508 67.5989 19.5627 67.5989C22.1415 67.5989 24.0665 67.0181 25.866 66.1683L26.1927 67.3753H29.4675V67.3751Z" fill="#E76F00"/>
<path d="M43.398 67.375H38.1919L31.9265 56.2529H36.4728L40.3605 63.0864L41.2248 65.1415C43.1916 62.1701 44.5826 59.1556 45.2784 56.2529H49.7009C48.516 59.9154 46.3838 63.9353 43.398 67.375Z" fill="#E76F00"/>
<path d="M63.3691 64.8063C61.8535 65.522 60.253 65.9237 58.8192 65.9237C56.7763 65.9237 55.6678 65.2544 55.6678 64.1808C55.6678 63.0195 56.8553 62.1704 61.6075 62.1704H63.3691V64.8063ZM67.5427 67.3751V59.4234C67.5427 57.3921 65.4135 56.0518 60.2983 56.0518C57.3065 56.0518 54.6867 56.4544 52.5591 56.968L53.1725 58.3755C54.8491 58.04 57.0226 57.7277 59.1502 57.7277C62.0981 57.7277 63.3691 58.3755 63.3691 59.715V60.72H61.8943C54.7246 60.72 51.4927 62.2376 51.4927 64.5156C51.4927 66.4814 53.6218 67.5989 57.6329 67.5989C60.2131 67.5989 62.1375 67.0181 63.9401 66.1683L64.2679 67.3753H67.5427V67.3751Z" fill="#E76F00"/>
<path d="M8.84327 69.2641C7.65335 70.2117 5.73143 70.9614 3.62735 71.3856L1.56647 70.0627C3.16799 69.6145 4.54151 68.8906 5.17967 68.2163C5.73167 67.6166 5.96015 66.8437 5.96015 64.9954V52.2979H10.3949V64.8214C10.3946 67.2924 10.0325 68.2906 8.84327 69.2641Z" fill="#E76F00"/>
</svg>
