<svg width="64" height="64" viewBox="0 0 64 64" fill="none" xmlns="http://www.w3.org/2000/svg">
<path d="M60.8222 50.1463H60.3874V50.0137H61.5577V50.1463H61.126V50.8082H60.8222V50.1463ZM63.1565 50.1809H63.1496L62.7189 50.8083H62.5218L62.0938 50.1809H62.0885V50.8083H61.8022V50.0138H62.2235L62.6203 50.5764L63.0159 50.0138H63.4357V50.8083H63.1562V50.1809H63.1565Z" fill="#E76F00"/>
<path d="M21.9053 33.8994C21.9053 33.8994 18.8806 34.8588 24.0578 35.1835C30.3298 35.5738 33.5354 35.5178 40.4471 34.8043C40.4471 34.8043 42.2643 35.4258 44.8021 35.9641C29.3077 39.5862 9.73525 35.7543 21.9053 33.8994Z" fill="#5382A1"/>
<path d="M20.0119 29.1729C20.0119 29.1729 16.6195 30.5426 21.8005 30.8349C28.5005 31.2119 33.7916 31.2427 42.9472 30.2811C42.9472 30.2811 44.2135 30.9814 46.2048 31.3643C27.4711 34.3523 6.60521 31.6 20.0119 29.1729Z" fill="#5382A1"/>
<path d="M35.9733 21.1547C39.7911 23.5522 34.9702 25.7097 34.9702 25.7097C34.9702 25.7097 44.6643 22.9801 40.2122 19.5619C36.0542 16.3742 32.8655 14.7904 50.1278 9.32959C50.1278 9.32959 23.0317 13.0209 35.9733 21.1547Z" fill="#E76F00"/>
<path d="M56.4659 37.3954C56.4659 37.3954 58.7042 38.4014 54.0008 39.1796C45.0573 40.6574 16.7767 41.1037 8.92052 39.2385C6.09641 38.5684 11.3924 37.6384 13.0583 37.4432C14.7957 37.2377 15.7886 37.276 15.7886 37.276C12.6479 36.0692 -4.51159 39.6457 7.07241 40.6699C38.6637 43.4644 64.6602 39.4115 56.4659 37.3954Z" fill="#5382A1"/>
<path d="M23.3598 24.2756C23.3598 24.2756 8.97449 26.1393 18.2656 26.816C22.1886 27.1025 30.0089 27.0377 37.2934 26.7048C43.2467 26.4309 49.2245 25.8485 49.2245 25.8485C49.2245 25.8485 47.1253 26.3388 45.6066 26.9045C30.9986 29.0001 2.77864 28.0252 10.9028 25.8816C17.7734 24.0701 23.3598 24.2756 23.3598 24.2756Z" fill="#5382A1"/>
<path d="M49.1652 32.1433C64.0149 27.9343 57.149 23.8895 52.3567 24.4344C51.1821 24.5678 50.6583 24.6833 50.6583 24.6833C50.6583 24.6833 51.0944 24.3108 51.9272 24.1495C61.408 22.3314 68.6993 29.5116 48.8668 32.3554C48.8668 32.3555 49.0965 32.2435 49.1652 32.1433Z" fill="#5382A1"/>
<path d="M40.2123 0.511719C40.2123 0.511719 48.4363 4.99905 32.4122 11.8993C19.5625 17.4345 29.482 20.5905 32.4068 24.1964C24.9063 20.5051 19.4018 17.2556 23.0946 14.2313C28.5148 9.79195 43.5305 7.63957 40.2123 0.511719Z" fill="#E76F00"/>
<path d="M24.819 43.5487C39.0729 44.0464 60.9613 43.2726 61.4797 39.5938C61.4797 39.5938 60.4832 40.9884 49.6996 42.0959C37.5337 43.3447 22.5287 43.1989 13.629 42.3986C13.6292 42.3985 15.4509 43.221 24.819 43.5487Z" fill="#5382A1"/>
<path d="M22.483 57.6055C21.1383 58.2417 19.7182 58.5988 18.4437 58.5988C16.6246 58.5988 15.6418 58.0039 15.6418 57.0496C15.6418 56.0173 16.6948 55.2626 20.9195 55.2626H22.4828V57.6055M26.1933 59.889V52.8208C26.1933 51.0152 24.3053 49.8237 19.7532 49.8237C17.0957 49.8237 14.7678 50.1817 12.8757 50.6382L13.4219 51.8893C14.9116 51.5911 16.8399 51.3134 18.7326 51.3134C21.3549 51.3134 22.483 51.8893 22.483 53.0799V53.9733H21.1742C14.803 53.9733 11.929 55.3223 11.929 57.3471C11.929 59.0945 13.8229 60.0878 17.389 60.0878C19.6813 60.0878 21.3924 59.5716 22.992 58.8162L23.2823 59.8891H26.1933V59.889Z" fill="#E76F00"/>
<path d="M38.576 59.8892H33.9484L28.3791 50.0029H32.4203L35.8761 56.0771L36.6443 57.9039C38.3925 55.2627 39.629 52.5831 40.2475 50.0029H44.1786C43.1253 53.2584 41.2301 56.8317 38.576 59.8892Z" fill="#E76F00"/>
<path d="M56.3281 57.6055C54.9809 58.2417 53.5582 58.5988 52.2837 58.5988C50.4678 58.5988 49.4825 58.0039 49.4825 57.0496C49.4825 56.0173 50.538 55.2626 54.7622 55.2626H56.3281V57.6055ZM60.038 59.889V52.8208C60.038 51.0152 58.1453 49.8237 53.5985 49.8237C50.9391 49.8237 48.6103 50.1817 46.7191 50.6382L47.2644 51.8893C48.7548 51.5911 50.6867 51.3134 52.5779 51.3134C55.1983 51.3134 56.3281 51.8893 56.3281 53.0799V53.9733H55.0172C48.6441 53.9733 45.7713 55.3223 45.7713 57.3471C45.7713 59.0945 47.6638 60.0878 51.2292 60.0878C53.5228 60.0878 55.2333 59.5716 56.8356 58.8162L57.127 59.8891H60.038V59.889Z" fill="#E76F00"/>
<path d="M7.86072 61.5679C6.80302 62.4102 5.09464 63.0767 3.22435 63.4537L1.39246 62.2778C2.81603 61.8794 4.03694 61.2359 4.60419 60.6365C5.09486 60.1035 5.29795 59.4164 5.29795 57.7735V46.4868H9.23992V57.6189C9.23971 59.8153 8.91779 60.7026 7.86072 61.5679Z" fill="#E76F00"/>
</svg>
